<?xml version="1.0" encoding="UTF-8"?>
<svg width="32" height="32" viewBox="0 0 32 32" fill="none" xmlns="http://www.w3.org/2000/svg">
  <rect width="32" height="32" rx="16" fill="#2D3748"/>
  <path d="M22 12H10C8.89543 12 8 12.8954 8 14V18C8 19.1046 8.89543 20 10 20H22C23.1046 20 24 19.1046 24 18V14C24 12.8954 23.1046 12 22 12Z" stroke="white" stroke-width="2" stroke-linecap="round" stroke-linejoin="round"/>
  <path d="M20 16C20 17.1046 19.1046 18 18 18C16.8954 18 16 17.1046 16 16C16 14.8954 16.8954 14 18 14C19.1046 14 20 14.8954 20 16Z" stroke="white" stroke-width="2"/>
</svg> 