<?xml version="1.0" encoding="UTF-8"?>
<svg width="32" height="32" viewBox="0 0 32 32" fill="none" xmlns="http://www.w3.org/2000/svg">
  <rect width="32" height="32" rx="8" fill="#6B7280"/>
  <g clip-path="url(#clip0)">
    <path d="M8 12C8 10.8954 8.89543 10 10 10H22C23.1046 10 24 10.8954 24 12V20C24 21.1046 23.1046 22 22 22H10C8.89543 22 8 21.1046 8 20V12Z" fill="white"/>
    <path d="M12 16C12 17.1046 12.8954 18 14 18C15.1046 18 16 17.1046 16 16C16 14.8954 15.1046 14 14 14C12.8954 14 12 14.8954 12 16Z" fill="#6B7280"/>
    <path d="M19 15H21V17H19V15Z" fill="#6B7280"/>
  </g>
  <defs>
    <clipPath id="clip0">
      <rect width="16" height="12" fill="white" transform="translate(8 10)"/>
    </clipPath>
  </defs>
</svg> 